<svg width="32.000000" height="32.000000" viewBox="0 0 32 32" fill="none" xmlns="http://www.w3.org/2000/svg" xmlns:xlink="http://www.w3.org/1999/xlink">
	<desc>
			Created with Pixso.
	</desc>
	<defs/>
	<path id="Vector" d="M9 14.3C9 19.01 14.52 24.02 17.91 26.65C19.07 27.55 19.65 28 20.5 28C21.34 28 21.92 27.55 23.08 26.65C26.47 24.02 32 19.01 32 14.3C32 7.1 25.67 4.41 20.5 9.97C15.32 4.41 9 7.1 9 14.3Z" fill="#FFFFFF" fill-opacity="1.000000" fill-rule="nonzero"/>
	<path id="Vector" d="M19.79 9.26C14.76 4.66 9 7.42 9 14.3C9 19.01 14.52 24.02 17.91 26.65C19.07 27.55 19.65 28 20.5 28C21.34 28 21.92 27.55 23.08 26.65C26.47 24.02 32 19.01 32 14.3C32 7.42 26.23 4.66 21.21 9.26C20.97 9.48 20.73 9.72 20.5 9.97C20.26 9.72 20.02 9.48 19.79 9.26ZM20.5 27Q20 27 18.53 25.86L18.53 25.85Q10 19.24 10 14.3Q10 10.74 11.77 9.14Q12.37 8.59 13.17 8.28Q13.92 7.98 14.68 7.95Q17.17 7.87 19.76 10.65L20.5 11.44L21.23 10.65Q23.82 7.87 26.31 7.95Q27.07 7.98 27.82 8.28Q28.62 8.59 29.22 9.14Q31 10.74 31 14.3Q31 19.24 22.46 25.86Q21 27 20.5 27Z" fill="#FFFFFF" fill-opacity="1.000000" fill-rule="evenodd"/>
	<path id="Vector 1" d="M32 4L7.82 4C5.92 4 8.1 4 32 4ZM7.82 4L0 4" stroke="#FFFFFF" stroke-opacity="1.000000" stroke-width="1.000000"/>
	<path id="Vector 2" d="M13 24L3.17 24C2.4 24 3.29 24 13 24ZM3.17 24L0 24" stroke="#FFFFFF" stroke-opacity="1.000000" stroke-width="1.000000"/>
	<path id="Vector 3" d="M9 20L2.2 20C1.66 20 2.28 20 9 20ZM2.2 20L0 20" stroke="#FFFFFF" stroke-opacity="1.000000" stroke-width="1.000000"/>
	<path id="Vector 4" d="M8 16L1.95 16C1.48 16 2.02 16 8 16ZM1.95 16L0 16" stroke="#FFFFFF" stroke-opacity="1.000000" stroke-width="1.000000"/>
	<path id="Vector 5" d="M8 12L1.95 12C1.48 12 2.02 12 8 12ZM1.95 12L0 12" stroke="#FFFFFF" stroke-opacity="1.000000" stroke-width="1.000000"/>
	<path id="Vector 6" d="M10 8L2.44 8C1.85 8 2.53 8 10 8ZM2.44 8L0 8" stroke="#FFFFFF" stroke-opacity="1.000000" stroke-width="1.000000"/>
</svg>
