<svg width="32.000000" height="32.000000" viewBox="0 0 32 32" fill="none" xmlns="http://www.w3.org/2000/svg" xmlns:xlink="http://www.w3.org/1999/xlink">
	<desc>
			Created with Pixso.
	</desc>
	<defs>
		<clipPath id="clip2_312">
			<rect id="octicon:person-24" width="32.000000" height="32.000000" transform="translate(-0.500000 0.000000)" fill="white" fill-opacity="0"/>
		</clipPath>
	</defs>
	<g clip-path="url(#clip2_312)">
		<path id="Vector" d="M15.5 3.33C17.06 3.33 18.59 3.83 19.85 4.76C21.11 5.69 22.04 7 22.51 8.5C22.97 10 22.94 11.61 22.42 13.09C21.9 14.57 20.92 15.84 19.62 16.72C21.87 17.55 23.83 19.03 25.23 20.97C26.63 22.92 27.42 25.24 27.49 27.63C27.5 27.77 27.48 27.9 27.43 28.02C27.39 28.15 27.32 28.26 27.23 28.36C27.14 28.46 27.03 28.54 26.91 28.59C26.78 28.65 26.65 28.68 26.52 28.68C26.39 28.69 26.25 28.66 26.13 28.62C26.01 28.57 25.89 28.5 25.8 28.4C25.7 28.31 25.62 28.2 25.57 28.08C25.52 27.96 25.49 27.82 25.49 27.69C25.41 25.09 24.32 22.63 22.46 20.82C20.59 19.01 18.09 18 15.5 18C12.9 18 10.4 19.01 8.53 20.82C6.67 22.63 5.58 25.09 5.5 27.69C5.49 27.96 5.38 28.21 5.19 28.39C4.99 28.57 4.74 28.67 4.47 28.66C4.2 28.65 3.95 28.54 3.77 28.35C3.59 28.15 3.49 27.9 3.5 27.63C3.57 25.24 4.36 22.92 5.76 20.97C7.17 19.03 9.12 17.55 11.37 16.72C10.07 15.84 9.09 14.57 8.57 13.09C8.05 11.61 8.02 10 8.48 8.5C8.95 7 9.88 5.69 11.14 4.76C12.4 3.83 13.93 3.33 15.5 3.33ZM10.16 10.66C10.16 12.08 10.72 13.43 11.72 14.43C12.72 15.43 14.08 16 15.5 16C16.91 16 18.27 15.43 19.27 14.43C20.27 13.43 20.83 12.08 20.83 10.66C20.83 9.25 20.27 7.89 19.27 6.89C18.27 5.89 16.91 5.33 15.5 5.33C14.08 5.33 12.72 5.89 11.72 6.89C10.72 7.89 10.16 9.25 10.16 10.66Z" fill="#FFFFFF" fill-opacity="1.000000" fill-rule="nonzero"/>
	</g>
</svg>
