<svg width="32.000000" height="32.000000" viewBox="0 0 32 32" fill="none" xmlns="http://www.w3.org/2000/svg" xmlns:xlink="http://www.w3.org/1999/xlink">
	<desc>
			Created with Pixso.
	</desc>
	<defs>
		<clipPath id="clip2_330">
			<rect id="iconamoon:shopping-bag-thin" width="32.000000" height="32.000000" transform="translate(-0.500000 0.000000)" fill="white" fill-opacity="0"/>
		</clipPath>
	</defs>
	<g clip-path="url(#clip2_330)">
		<path id="Vector" d="M26.16 12L25.05 24.24C24.99 24.9 24.68 25.52 24.19 25.96C23.7 26.41 23.06 26.66 22.39 26.66L8.6 26.66C7.93 26.66 7.29 26.41 6.8 25.96C6.31 25.52 6 24.9 5.94 24.24L4.83 12L26.16 12Z" stroke="#FFFFFF" stroke-opacity="1.000000" stroke-width="2.000000" stroke-linejoin="round"/>
		<path id="Vector" d="M10.16 9.14C10.16 8.13 10.72 7.16 11.72 6.44C12.72 5.73 14.08 5.33 15.5 5.33C16.91 5.33 18.27 5.73 19.27 6.44C20.27 7.16 20.83 8.13 20.83 9.14" stroke="#FFFFFF" stroke-opacity="1.000000" stroke-width="2.000000" stroke-linecap="round"/>
	</g>
</svg>
